
<svg version="1.1" id="Layer_1" xmlns="http://www.w3.org/2000/svg" xmlns:xlink="http://www.w3.org/1999/xlink" x="0px" y="0px"
	 width="453px" height="154px" viewBox="0 0 453 154" style="enable-background:new 0 0 453 154;" xml:space="preserve">
<style type="text/css">
	.st0{fill:#FFD000;}
</style>

	<path d="M173.4,95.7h-10.8l-2.1,5H155l10.4-23.3h5.3l10.4,23.3h-5.7L173.4,95.7z M171.7,91.7l-3.7-8.9l-3.7,8.9H171.7z"/>
	<path d="M206.4,77.4l-10.1,23.3H191l-10.1-23.3h5.8l7.1,16.7l7.2-16.7H206.4z"/>
	<path d="M224.6,95.7h-10.8l-2.1,5h-5.5l10.4-23.3h5.3l10.4,23.3h-5.7L224.6,95.7z M222.9,91.7l-3.7-8.9l-3.7,8.9H222.9z"/>
	<path d="M236.4,77.4H247c2.5,0,4.8,0.5,6.7,1.4s3.5,2.3,4.5,4.1c1.1,1.8,1.6,3.8,1.6,6.1c0,2.3-0.5,4.4-1.6,6.1
		c-1.1,1.8-2.6,3.1-4.5,4.1s-4.2,1.4-6.7,1.4h-10.6V77.4z M246.7,96.3c2.3,0,4.2-0.6,5.6-1.9c1.4-1.3,2.1-3.1,2.1-5.3
		c0-2.2-0.7-4-2.1-5.3c-1.4-1.3-3.2-1.9-5.6-1.9h-4.9v14.5H246.7z"/>
	<path d="M280.6,95.7h-10.8l-2.1,5h-5.5l10.4-23.3h5.3l10.4,23.3h-5.7L280.6,95.7z M278.9,91.7l-3.7-8.9l-3.7,8.9H278.9z"/>
	<path d="M162.8,144.6c-1.9-1-3.4-2.5-4.5-4.3s-1.6-3.9-1.6-6.2s0.5-4.4,1.6-6.2c1.1-1.8,2.6-3.3,4.5-4.3c1.9-1,4.1-1.5,6.5-1.5
		c2,0,3.8,0.4,5.5,1.1c1.6,0.7,3,1.7,4.1,3.1l-3.5,3.2c-1.6-1.8-3.5-2.7-5.9-2.7c-1.4,0-2.7,0.3-3.9,0.9c-1.1,0.6-2,1.5-2.6,2.6
		c-0.6,1.1-0.9,2.4-0.9,3.9s0.3,2.7,0.9,3.9c0.6,1.1,1.5,2,2.6,2.6s2.4,0.9,3.9,0.9c2.3,0,4.3-0.9,5.9-2.8l3.5,3.2
		c-1.1,1.4-2.5,2.4-4.1,3.1c-1.6,0.7-3.5,1.1-5.5,1.1C166.8,146.1,164.7,145.6,162.8,144.6z"/>
	<path d="M188.4,144.6c-1.9-1-3.5-2.5-4.6-4.3s-1.6-3.9-1.6-6.2s0.5-4.3,1.6-6.2c1.1-1.8,2.6-3.3,4.6-4.3c1.9-1,4.1-1.6,6.5-1.6
		c2.4,0,4.6,0.5,6.5,1.6c1.9,1,3.5,2.5,4.6,4.3c1.1,1.8,1.7,3.9,1.7,6.2s-0.6,4.3-1.7,6.2c-1.1,1.8-2.6,3.3-4.6,4.3
		c-1.9,1-4.1,1.6-6.5,1.6C192.5,146.1,190.3,145.6,188.4,144.6z M198.7,140.6c1.1-0.6,2-1.5,2.6-2.6c0.6-1.1,0.9-2.4,0.9-3.9
		s-0.3-2.7-0.9-3.9c-0.6-1.1-1.5-2-2.6-2.6c-1.1-0.6-2.4-0.9-3.7-0.9c-1.4,0-2.6,0.3-3.7,0.9c-1.1,0.6-2,1.5-2.6,2.6
		c-0.6,1.1-0.9,2.4-0.9,3.9s0.3,2.7,0.9,3.9c0.6,1.1,1.5,2,2.6,2.6c1.1,0.6,2.4,0.9,3.7,0.9C196.3,141.5,197.5,141.2,198.7,140.6z"
		/>
	<path d="M234.8,122.4v23.3h-4.4l-11.6-14.2v14.2h-5.3v-23.3h4.5l11.6,14.2v-14.2H234.8z"/>
	<path d="M244.3,145.4c-1.7-0.5-3.1-1.1-4.1-1.9l1.8-4.1c1,0.7,2.2,1.3,3.6,1.8s2.8,0.7,4.1,0.7c1.5,0,2.7-0.2,3.4-0.7
		s1.1-1.1,1.1-1.8c0-0.6-0.2-1-0.7-1.4s-1-0.7-1.7-0.9c-0.7-0.2-1.6-0.5-2.7-0.7c-1.8-0.4-3.2-0.8-4.4-1.3c-1.1-0.4-2.1-1.1-2.9-2
		c-0.8-0.9-1.2-2.2-1.2-3.7c0-1.4,0.4-2.6,1.1-3.7s1.8-2,3.3-2.6c1.5-0.6,3.3-1,5.4-1c1.5,0,2.9,0.2,4.4,0.5
		c1.4,0.4,2.7,0.9,3.7,1.5l-1.7,4.1c-2.2-1.2-4.3-1.8-6.5-1.8c-1.5,0-2.6,0.2-3.3,0.7c-0.7,0.5-1.1,1.1-1.1,1.9
		c0,0.8,0.4,1.4,1.2,1.8s2.1,0.8,3.8,1.1c1.8,0.4,3.2,0.8,4.4,1.3c1.1,0.4,2.1,1.1,2.9,2s1.2,2.1,1.2,3.7c0,1.3-0.4,2.5-1.1,3.6
		c-0.7,1.1-1.9,2-3.3,2.6c-1.5,0.6-3.3,1-5.4,1C247.8,146.1,246,145.9,244.3,145.4z"/>
	<path d="M269.4,126.8h-7.5v-4.4h20.3v4.4h-7.5v18.9h-5.4V126.8z"/>
	<path d="M301.7,145.7l-4.5-6.5h-0.3h-4.7v6.5h-5.4v-23.3h10.1c2.1,0,3.9,0.3,5.4,1c1.5,0.7,2.7,1.7,3.5,2.9
		c0.8,1.3,1.2,2.8,1.2,4.5c0,1.7-0.4,3.2-1.2,4.5c-0.8,1.3-2,2.2-3.5,2.9l5.2,7.5H301.7z M300.3,127.9c-0.8-0.7-2.1-1-3.7-1h-4.4
		v8.1h4.4c1.6,0,2.9-0.4,3.7-1.1c0.8-0.7,1.3-1.7,1.3-3C301.6,129.6,301.2,128.6,300.3,127.9z"/>
	<path d="M315.5,143.4c-1.9-1.8-2.8-4.5-2.8-7.9v-13.1h5.4v12.9c0,4.2,1.7,6.3,5.2,6.3c1.7,0,3-0.5,3.9-1.5c0.9-1,1.3-2.6,1.3-4.7
		v-12.9h5.3v13.1c0,3.4-0.9,6.1-2.8,7.9c-1.9,1.8-4.4,2.8-7.8,2.8C320,146.1,317.4,145.2,315.5,143.4z"/>
	<path d="M345.6,144.6c-1.9-1-3.4-2.5-4.5-4.3c-1.1-1.8-1.6-3.9-1.6-6.2s0.6-4.4,1.6-6.2c1.1-1.8,2.6-3.3,4.5-4.3
		c1.9-1,4.1-1.5,6.5-1.5c2,0,3.8,0.4,5.5,1.1c1.6,0.7,3,1.7,4.1,3.1l-3.5,3.2c-1.6-1.8-3.5-2.7-5.9-2.7c-1.4,0-2.7,0.3-3.9,0.9
		c-1.1,0.6-2,1.5-2.6,2.6c-0.6,1.1-0.9,2.4-0.9,3.9s0.3,2.7,0.9,3.9c0.6,1.1,1.5,2,2.6,2.6s2.4,0.9,3.9,0.9c2.3,0,4.3-0.9,5.9-2.8
		l3.5,3.2c-1.1,1.4-2.5,2.4-4.1,3.1c-1.6,0.7-3.5,1.1-5.5,1.1C349.7,146.1,347.5,145.6,345.6,144.6z"/>
	<path d="M371.5,126.8h-7.5v-4.4h20.3v4.4h-7.5v18.9h-5.4V126.8z"/>
	<path d="M389,122.4h5.4v23.3H389V122.4z"/>
	<path d="M406.3,144.6c-1.9-1-3.5-2.5-4.6-4.3s-1.6-3.9-1.6-6.2s0.5-4.3,1.6-6.2c1.1-1.8,2.6-3.3,4.6-4.3c1.9-1,4.1-1.6,6.5-1.6
		s4.6,0.5,6.5,1.6c1.9,1,3.5,2.5,4.6,4.3c1.1,1.8,1.7,3.9,1.7,6.2s-0.6,4.3-1.7,6.2c-1.1,1.8-2.6,3.3-4.6,4.3s-4.1,1.6-6.5,1.6
		S408.2,145.6,406.3,144.6z M416.6,140.6c1.1-0.6,2-1.5,2.6-2.6c0.6-1.1,0.9-2.4,0.9-3.9s-0.3-2.7-0.9-3.9c-0.6-1.1-1.5-2-2.6-2.6
		c-1.1-0.6-2.4-0.9-3.7-0.9s-2.6,0.3-3.7,0.9c-1.1,0.6-2,1.5-2.6,2.6c-0.6,1.1-0.9,2.4-0.9,3.9s0.3,2.7,0.9,3.9
		c0.6,1.1,1.5,2,2.6,2.6c1.1,0.6,2.4,0.9,3.7,0.9S415.5,141.2,416.6,140.6z"/>
	<path d="M452.7,122.4v23.3h-4.4l-11.6-14.2v14.2h-5.3v-23.3h4.5l11.6,14.2v-14.2H452.7z"/>

<polygon points="0,71.4 0,93.8 94.8,21.4 94.8,0 72.4,16.8 72.4,4.3 52,4.3 52,28.6 "/>
<polygon class="st0" points="29,154 29,81.9 94.8,33.2 94.8,77 61.9,77 61.9,145.7 94.8,145.7 94.8,154 "/>
<rect x="94.8" y="77" class="st0" width="34.9" height="69.1"/>
</svg>
